# xmcd CD database file
#
# Track frame offsets:
#	150
#	14952
#	36787
#	51318
#	68806
#	86096
#	99724
#	116379
#	130069
#	147402
#	160152
#	175291
#	188606
#	201146
#	217200
#
# Disc length: 3074 seconds
#
# Revision: 0
# Processed by: cddbd v1.5.2PL0 Copyright (c) Steve Scherf et al.
# Submitted via: CDex 1.51
#
DISCID=e10c000f
DTITLE=Daniel O'Donnell - Peace In The Valley
DYEAR=2009
DGENRE=Country
TTITLE0=Peace In the Valley
TTITLE1=Mansion Over The Hilltop
TTITLE2=Far Side Banks Of Jordan
TTITLE3=On The Wings Of A Dove
TTITLE4=If Jesus Comes Tomorrow, What Then
TTITLE5=Wait A Little longer Please Jesus
TTITLE6=Precious Memories
TTITLE7=If I Could Hear My Mother Pray Again
TTITLE8=Just A Closer Walk With Thee
TTITLE9=A Satisfied Mind
TTITLE10=I Won't Have To Cross Jordan Alone
TTITLE11=The Church In The Wildwood
TTITLE12=Praying
TTITLE13=Where We'll Never Grow Old
TTITLE14=I'll Fly Away
EXTD=YEAR: 2009
EXTT0=
EXTT1=
EXTT2=
EXTT3=
EXTT4=
EXTT5=
EXTT6=
EXTT7=
EXTT8=
EXTT9=
EXTT10=
EXTT11=
EXTT12=
EXTT13=
EXTT14=
PLAYORDER=
